<svg width="24" height="24" viewBox="0 0 24 24" fill="none" xmlns="http://www.w3.org/2000/svg">
<path fill-rule="evenodd" clip-rule="evenodd" d="M12 0.999939C5.925 0.999939 1 5.92494 1 11.9999C1 18.0749 5.925 22.9999 12 22.9999C18.075 22.9999 23 18.0749 23 11.9999C23 5.92494 18.075 0.999939 12 0.999939ZM16.768 10.1399C16.8558 10.0396 16.9226 9.92268 16.9646 9.79611C17.0065 9.66954 17.0227 9.53585 17.0123 9.40292C17.0018 9.26999 16.9648 9.1405 16.9036 9.02207C16.8423 8.90363 16.758 8.79864 16.6555 8.71328C16.5531 8.62792 16.4346 8.5639 16.3071 8.525C16.1796 8.4861 16.0455 8.4731 15.9129 8.48677C15.7802 8.50043 15.6517 8.54049 15.5347 8.60457C15.4178 8.66866 15.3149 8.75548 15.232 8.85994L10.932 14.0189L8.707 11.7929C8.5184 11.6108 8.2658 11.51 8.0036 11.5123C7.7414 11.5145 7.49059 11.6197 7.30518 11.8051C7.11977 11.9905 7.0146 12.2413 7.01233 12.5035C7.01005 12.7657 7.11084 13.0183 7.293 13.2069L10.293 16.2069C10.3913 16.3051 10.5089 16.3818 10.6384 16.432C10.7679 16.4822 10.9065 16.5049 11.0453 16.4986C11.184 16.4923 11.32 16.4571 11.4444 16.3954C11.5688 16.3336 11.6791 16.2466 11.768 16.1399L16.768 10.1399Z" fill="#63C776"/>
</svg>
